<mxfile host="app.diagrams.net" modified="2022-07-27T06:18:10.529Z" agent="5.0 (Windows NT 10.0; Win64; x64) AppleWebKit/537.36 (KHTML, like Gecko) Chrome/103.0.0.0 Safari/537.36" etag="QxDddpj65sq-_6RxlD3S" version="18.1.3" type="github">
  <diagram id="IFJZ7d17FifAD3GTfRaC" name="Page-1">
    <mxGraphModel dx="1422" dy="762" grid="1" gridSize="10" guides="1" tooltips="1" connect="1" arrows="1" fold="1" page="1" pageScale="1" pageWidth="827" pageHeight="1169" math="0" shadow="0">
      <root>
        <mxCell id="0" />
        <mxCell id="1" parent="0" />
        <mxCell id="z-2BA4qarmT1QvA8g8zc-2" style="edgeStyle=orthogonalEdgeStyle;rounded=0;orthogonalLoop=1;jettySize=auto;html=1;exitX=0.5;exitY=1;exitDx=0;exitDy=0;" parent="1" edge="1">
          <mxGeometry relative="1" as="geometry">
            <mxPoint x="375" y="320" as="sourcePoint" />
            <mxPoint x="375" y="320" as="targetPoint" />
          </mxGeometry>
        </mxCell>
        <mxCell id="avkLMOH4juFyW2H_LeQX-7" value="" style="edgeStyle=orthogonalEdgeStyle;rounded=0;orthogonalLoop=1;jettySize=auto;html=1;" parent="1" source="avkLMOH4juFyW2H_LeQX-1" target="avkLMOH4juFyW2H_LeQX-6" edge="1">
          <mxGeometry relative="1" as="geometry" />
        </mxCell>
        <mxCell id="avkLMOH4juFyW2H_LeQX-1" value="业务人员" style="shape=umlActor;verticalLabelPosition=bottom;verticalAlign=top;html=1;" parent="1" vertex="1">
          <mxGeometry x="90" y="399" width="30" height="60" as="geometry" />
        </mxCell>
        <mxCell id="avkLMOH4juFyW2H_LeQX-6" value="奖扣规则&lt;br&gt;（关联单号、审批层级、奖扣类型、计算规则）" style="whiteSpace=wrap;html=1;verticalAlign=middle;" parent="1" vertex="1">
          <mxGeometry x="155" y="394" width="135" height="70" as="geometry" />
        </mxCell>
        <mxCell id="avkLMOH4juFyW2H_LeQX-10" value="" style="edgeStyle=orthogonalEdgeStyle;rounded=0;orthogonalLoop=1;jettySize=auto;html=1;" parent="1" source="avkLMOH4juFyW2H_LeQX-8" target="avkLMOH4juFyW2H_LeQX-9" edge="1">
          <mxGeometry relative="1" as="geometry" />
        </mxCell>
        <mxCell id="avkLMOH4juFyW2H_LeQX-54" value="" style="edgeStyle=elbowEdgeStyle;rounded=0;orthogonalLoop=1;jettySize=auto;html=1;" parent="1" source="avkLMOH4juFyW2H_LeQX-8" target="avkLMOH4juFyW2H_LeQX-9" edge="1">
          <mxGeometry relative="1" as="geometry" />
        </mxCell>
        <mxCell id="avkLMOH4juFyW2H_LeQX-56" value="" style="edgeStyle=elbowEdgeStyle;rounded=0;orthogonalLoop=1;jettySize=auto;html=1;" parent="1" source="avkLMOH4juFyW2H_LeQX-8" target="avkLMOH4juFyW2H_LeQX-55" edge="1">
          <mxGeometry relative="1" as="geometry" />
        </mxCell>
        <mxCell id="avkLMOH4juFyW2H_LeQX-8" value="系统运营" style="shape=umlActor;verticalLabelPosition=bottom;verticalAlign=top;html=1;" parent="1" vertex="1">
          <mxGeometry x="90" y="230" width="30" height="60" as="geometry" />
        </mxCell>
        <mxCell id="avkLMOH4juFyW2H_LeQX-9" value="维护条线对应的奖扣类别" style="whiteSpace=wrap;html=1;verticalAlign=middle;" parent="1" vertex="1">
          <mxGeometry x="162.5" y="290" width="120" height="60" as="geometry" />
        </mxCell>
        <mxCell id="avkLMOH4juFyW2H_LeQX-14" value="Use" style="endArrow=open;endSize=12;dashed=1;html=1;rounded=0;entryX=0.5;entryY=1;entryDx=0;entryDy=0;exitX=0.5;exitY=0;exitDx=0;exitDy=0;" parent="1" source="avkLMOH4juFyW2H_LeQX-6" target="avkLMOH4juFyW2H_LeQX-9" edge="1">
          <mxGeometry width="160" relative="1" as="geometry">
            <mxPoint x="220" y="380" as="sourcePoint" />
            <mxPoint x="380" y="380" as="targetPoint" />
          </mxGeometry>
        </mxCell>
        <mxCell id="avkLMOH4juFyW2H_LeQX-18" value="" style="edgeStyle=orthogonalEdgeStyle;rounded=0;orthogonalLoop=1;jettySize=auto;html=1;" parent="1" source="avkLMOH4juFyW2H_LeQX-16" target="avkLMOH4juFyW2H_LeQX-17" edge="1">
          <mxGeometry relative="1" as="geometry" />
        </mxCell>
        <mxCell id="avkLMOH4juFyW2H_LeQX-16" value="业务人员" style="shape=umlActor;verticalLabelPosition=bottom;verticalAlign=top;html=1;" parent="1" vertex="1">
          <mxGeometry x="90" y="520" width="30" height="60" as="geometry" />
        </mxCell>
        <mxCell id="avkLMOH4juFyW2H_LeQX-20" value="" style="edgeStyle=orthogonalEdgeStyle;rounded=0;orthogonalLoop=1;jettySize=auto;html=1;" parent="1" source="avkLMOH4juFyW2H_LeQX-17" target="avkLMOH4juFyW2H_LeQX-19" edge="1">
          <mxGeometry relative="1" as="geometry" />
        </mxCell>
        <mxCell id="avkLMOH4juFyW2H_LeQX-17" value="奖扣明细" style="whiteSpace=wrap;html=1;verticalAlign=middle;" parent="1" vertex="1">
          <mxGeometry x="162" y="520" width="120" height="60" as="geometry" />
        </mxCell>
        <mxCell id="avkLMOH4juFyW2H_LeQX-26" value="" style="edgeStyle=orthogonalEdgeStyle;rounded=0;orthogonalLoop=1;jettySize=auto;html=1;" parent="1" source="avkLMOH4juFyW2H_LeQX-19" target="avkLMOH4juFyW2H_LeQX-25" edge="1">
          <mxGeometry relative="1" as="geometry" />
        </mxCell>
        <mxCell id="avkLMOH4juFyW2H_LeQX-35" style="edgeStyle=orthogonalEdgeStyle;rounded=0;orthogonalLoop=1;jettySize=auto;html=1;exitX=0.5;exitY=0;exitDx=0;exitDy=0;entryX=1;entryY=0.25;entryDx=0;entryDy=0;" parent="1" source="avkLMOH4juFyW2H_LeQX-19" target="avkLMOH4juFyW2H_LeQX-19" edge="1">
          <mxGeometry relative="1" as="geometry">
            <mxPoint x="510" y="550" as="targetPoint" />
            <Array as="points">
              <mxPoint x="430" y="520" />
              <mxPoint x="430" y="470" />
              <mxPoint x="520" y="470" />
              <mxPoint x="520" y="535" />
            </Array>
          </mxGeometry>
        </mxCell>
        <mxCell id="avkLMOH4juFyW2H_LeQX-36" value="3天自动确认" style="edgeLabel;html=1;align=center;verticalAlign=middle;resizable=0;points=[];" parent="avkLMOH4juFyW2H_LeQX-35" vertex="1" connectable="0">
          <mxGeometry x="0.0545" y="-3" relative="1" as="geometry">
            <mxPoint x="-26" y="-13" as="offset" />
          </mxGeometry>
        </mxCell>
        <mxCell id="avkLMOH4juFyW2H_LeQX-38" value="" style="edgeStyle=orthogonalEdgeStyle;rounded=0;orthogonalLoop=1;jettySize=auto;html=1;exitX=1;exitY=0.5;exitDx=0;exitDy=0;" parent="1" source="avkLMOH4juFyW2H_LeQX-19" target="avkLMOH4juFyW2H_LeQX-37" edge="1">
          <mxGeometry relative="1" as="geometry" />
        </mxCell>
        <mxCell id="avkLMOH4juFyW2H_LeQX-19" value="承运商确认" style="whiteSpace=wrap;html=1;verticalAlign=middle;" parent="1" vertex="1">
          <mxGeometry x="380" y="520" width="120" height="60" as="geometry" />
        </mxCell>
        <mxCell id="avkLMOH4juFyW2H_LeQX-29" value="" style="edgeStyle=orthogonalEdgeStyle;rounded=0;orthogonalLoop=1;jettySize=auto;html=1;" parent="1" source="avkLMOH4juFyW2H_LeQX-25" target="avkLMOH4juFyW2H_LeQX-28" edge="1">
          <mxGeometry relative="1" as="geometry" />
        </mxCell>
        <mxCell id="avkLMOH4juFyW2H_LeQX-25" value="&#xa;&lt;span style=&quot;color: rgb(0, 0, 0); font-family: Helvetica; font-size: 12px; font-style: normal; font-variant-ligatures: normal; font-variant-caps: normal; font-weight: 400; letter-spacing: normal; orphans: 2; text-align: center; text-indent: 0px; text-transform: none; widows: 2; word-spacing: 0px; -webkit-text-stroke-width: 0px; background-color: rgb(248, 249, 250); text-decoration-thickness: initial; text-decoration-style: initial; text-decoration-color: initial; float: none; display: inline !important;&quot;&gt;OA审批流&lt;/span&gt;&#xa;&#xa;" style="whiteSpace=wrap;html=1;verticalAlign=top;" parent="1" vertex="1">
          <mxGeometry x="790" y="520" width="120" height="60" as="geometry" />
        </mxCell>
        <mxCell id="avkLMOH4juFyW2H_LeQX-28" value="推送计费" style="whiteSpace=wrap;html=1;verticalAlign=middle;" parent="1" vertex="1">
          <mxGeometry x="970" y="520" width="120" height="60" as="geometry" />
        </mxCell>
        <mxCell id="avkLMOH4juFyW2H_LeQX-37" value="提交审批" style="whiteSpace=wrap;html=1;verticalAlign=middle;" parent="1" vertex="1">
          <mxGeometry x="580" y="520" width="120" height="60" as="geometry" />
        </mxCell>
        <mxCell id="avkLMOH4juFyW2H_LeQX-55" value="公共审批配置，配置条线、区域审批人" style="whiteSpace=wrap;html=1;verticalAlign=middle;" parent="1" vertex="1">
          <mxGeometry x="580" y="230" width="120" height="60" as="geometry" />
        </mxCell>
        <mxCell id="avkLMOH4juFyW2H_LeQX-59" value="Use" style="endArrow=open;endSize=12;dashed=1;html=1;rounded=0;entryX=0.5;entryY=1;entryDx=0;entryDy=0;exitX=0.5;exitY=0;exitDx=0;exitDy=0;" parent="1" source="avkLMOH4juFyW2H_LeQX-37" target="avkLMOH4juFyW2H_LeQX-55" edge="1">
          <mxGeometry width="160" relative="1" as="geometry">
            <mxPoint x="620" y="510" as="sourcePoint" />
            <mxPoint x="232.5" y="360" as="targetPoint" />
          </mxGeometry>
        </mxCell>
        <mxCell id="avkLMOH4juFyW2H_LeQX-61" style="edgeStyle=none;rounded=0;orthogonalLoop=1;jettySize=auto;html=1;exitX=0.5;exitY=0.5;exitDx=0;exitDy=0;exitPerimeter=0;entryX=0.5;entryY=1;entryDx=0;entryDy=0;" parent="1" source="avkLMOH4juFyW2H_LeQX-60" target="avkLMOH4juFyW2H_LeQX-19" edge="1">
          <mxGeometry relative="1" as="geometry">
            <mxPoint x="410" y="710" as="targetPoint" />
          </mxGeometry>
        </mxCell>
        <mxCell id="avkLMOH4juFyW2H_LeQX-62" value="确认" style="edgeLabel;html=1;align=center;verticalAlign=middle;resizable=0;points=[];" parent="avkLMOH4juFyW2H_LeQX-61" vertex="1" connectable="0">
          <mxGeometry x="0.3692" y="-1" relative="1" as="geometry">
            <mxPoint as="offset" />
          </mxGeometry>
        </mxCell>
        <mxCell id="avkLMOH4juFyW2H_LeQX-60" value="承运商" style="shape=umlActor;verticalLabelPosition=bottom;verticalAlign=top;html=1;" parent="1" vertex="1">
          <mxGeometry x="425" y="660" width="30" height="60" as="geometry" />
        </mxCell>
        <mxCell id="avkLMOH4juFyW2H_LeQX-63" value="Use" style="endArrow=open;endSize=12;dashed=1;html=1;rounded=0;entryX=0.5;entryY=1;entryDx=0;entryDy=0;exitX=0.5;exitY=0;exitDx=0;exitDy=0;" parent="1" source="avkLMOH4juFyW2H_LeQX-17" target="avkLMOH4juFyW2H_LeQX-6" edge="1">
          <mxGeometry width="160" relative="1" as="geometry">
            <mxPoint x="650" y="530" as="sourcePoint" />
            <mxPoint x="650" y="300" as="targetPoint" />
          </mxGeometry>
        </mxCell>
        <mxCell id="0qVuPrfceSWwtv8Ga4ur-1" style="edgeStyle=none;rounded=0;orthogonalLoop=1;jettySize=auto;html=1;exitX=0.5;exitY=1;exitDx=0;exitDy=0;entryX=0.5;entryY=1;entryDx=0;entryDy=0;" edge="1" parent="1" source="avkLMOH4juFyW2H_LeQX-19" target="avkLMOH4juFyW2H_LeQX-17">
          <mxGeometry relative="1" as="geometry">
            <mxPoint x="450" y="590" as="targetPoint" />
            <mxPoint x="450" y="700" as="sourcePoint" />
            <Array as="points">
              <mxPoint x="320" y="620" />
            </Array>
          </mxGeometry>
        </mxCell>
        <mxCell id="0qVuPrfceSWwtv8Ga4ur-3" value="申诉" style="edgeLabel;html=1;align=center;verticalAlign=middle;resizable=0;points=[];" vertex="1" connectable="0" parent="0qVuPrfceSWwtv8Ga4ur-1">
          <mxGeometry x="0.1468" y="2" relative="1" as="geometry">
            <mxPoint x="7" y="21" as="offset" />
          </mxGeometry>
        </mxCell>
      </root>
    </mxGraphModel>
  </diagram>
</mxfile>
